HIERARCHY
ROOT hip
{
	OFFSET 0.000000 0.000000 0.000000 
	CHANNELS 6 Xposition Yposition Zposition Xrotation Zrotation Yrotation
	JOINT abdomen
	{
		OFFSET 0.000000 3.402643 0.000000 
		CHANNELS 3 Xrotation Zrotation Yrotation
		JOINT chest
		{
			OFFSET 0.000000 8.438565 -0.680529 
			CHANNELS 3 Xrotation Zrotation Yrotation
			JOINT neck
			{
				OFFSET 0.000000 10.207942 -0.272212 
				CHANNELS 3 Xrotation Zrotation Yrotation
				JOINT head
				{
					OFFSET 0.000000 3.130431 0.000000 
					CHANNELS 3 Xrotation Zrotation Yrotation
					End Site
					{
						OFFSET 0.000000 3.130435 0.000000 
					}
				}
			}
			JOINT lCollar
			{
				OFFSET 3.470700 6.669187 -0.816635 
				CHANNELS 3 Yrotation Zrotation Xrotation
				JOINT lShldr
				{
					OFFSET 3.198488 0.000000 0.000000 
					CHANNELS 3 Zrotation Yrotation Xrotation
					JOINT lForeArm
					{
						OFFSET 10.139888 0.000000 0.000000 
						CHANNELS 3 Yrotation Zrotation Xrotation
						JOINT lHand
						{
							OFFSET 8.370511 0.000000 0.000000 
							CHANNELS 3 Zrotation Yrotation Xrotation
							End Site
							{
								OFFSET 4.083176 0.000000 0.000000 
							}
						}
					}
				}
			}
			JOINT rCollar
			{
				OFFSET -3.470700 6.669187 -0.816635 
				CHANNELS 3 Yrotation Zrotation Xrotation
				JOINT rShldr
				{
					OFFSET -3.198488 0.000000 0.000000 
					CHANNELS 3 Zrotation Yrotation Xrotation
					JOINT rForeArm
					{
						OFFSET -10.139888 0.000000 0.000000 
						CHANNELS 3 Yrotation Zrotation Xrotation
						JOINT rHand
						{
							OFFSET -8.370511 0.000000 0.000000 
							CHANNELS 3 Zrotation Yrotation Xrotation
							End Site
							{
								OFFSET -4.083176 0.000000 0.000000 
							}
						}
					}
				}
			}
		}
	}
	JOINT lThigh
	{
		OFFSET 5.308129 -1.633274 1.361059 
		CHANNELS 3 Xrotation Zrotation Yrotation
		JOINT lShin
		{
			OFFSET -2.041588 -20.007561 0.000000 
			CHANNELS 3 Xrotation Zrotation Yrotation
			JOINT lFoot
			{
				OFFSET 0.000000 -19.190928 -1.224953 
				CHANNELS 3 Xrotation Yrotation Zrotation
				End Site
				{
					OFFSET 0.000000 -2.449906 4.627600 
				}
			}
		}
	}
	JOINT rThigh
	{
		OFFSET -5.308129 -1.633274 1.361059 
		CHANNELS 3 Xrotation Zrotation Yrotation
		JOINT rShin
		{
			OFFSET 2.041588 -20.007561 0.000000 
			CHANNELS 3 Xrotation Zrotation Yrotation
			JOINT rFoot
			{
				OFFSET 0.000000 -19.190928 -1.224953 
				CHANNELS 3 Xrotation Yrotation Zrotation
				End Site
				{
					OFFSET 0.000000 -2.449906 4.627600 
				}
			}
		}
	}
}
MOTION
Frames: 13
Frame Time: 0.016667
-7.677706 85.101341 42.796795 21.933863 -17.276581 20.676905 58.587940 6.543494 -7.364064 1.175547 3.052195 -12.384851 -27.929733 -1.231581 0.542016 -13.786125 -0.938289 -11.359078 -27.528938 -1.504436 -0.075164 -30.101761 -21.791149 -1.460811 -7.827765 -0.682068 -7.035584 -28.999239 30.000000 40.196003 -2.396617 7.473389 -0.396337 47.655190 2.896921 -8.511881 18.647070 5.000000 30.873732 20.945259 -8.799002 6.666804 -70.832718 10.662148 8.015493 103.310265 2.086729 -7.408338 -0.424377 6.198660 -2.224543 -74.412216 3.916417 -3.863772 81.597557 1.133399 12.403576 -28.668222 -30.609592 -2.600602 
-7.625099 85.645569 43.164497 21.889063 -17.185474 21.346430 57.737106 6.778460 -8.179881 0.942349 2.715506 -12.089221 -27.734301 -1.242699 0.533612 -13.263176 -0.823565 -11.300034 -27.147902 -1.367900 -0.068132 -31.184942 -21.031902 -1.001429 -7.956997 -0.738245 -6.510911 -30.116510 30.000000 39.423195 -2.271411 7.219806 -0.383215 47.818573 2.443180 -8.329496 20.557211 5.000000 28.036964 20.810553 -9.151724 7.073329 -72.132957 9.734804 6.488190 105.745506 2.301358 -7.130562 -3.694806 6.808633 -1.063112 -72.864731 3.203179 -3.861262 80.200058 1.524210 12.676620 -28.467213 -30.390873 -2.515274 
-7.572469 86.189796 43.532188 21.832937 -17.091169 22.024984 56.876442 7.003843 -8.997543 0.695677 2.388115 -11.793877 -27.529312 -1.252355 0.535284 -12.741896 -0.699216 -11.241175 -26.776836 -1.226964 -0.069817 -32.247231 -20.268393 -0.545636 -8.085719 -0.798216 -5.976865 -31.249981 30.000000 38.635170 -2.157102 6.965856 -0.360399 47.968407 1.993467 -8.142768 22.482122 5.000000 25.233919 20.680132 -9.513205 7.478624 -73.420891 8.777934 5.021021 108.201599 2.536027 -6.800438 -6.945477 7.271537 0.092493 -71.316414 2.519696 -3.899235 78.771729 1.885990 12.929827 -28.314709 -30.225290 -2.481440 
-7.429535 86.771835 43.923023 21.626707 -17.237400 21.950237 56.019279 6.896960 -9.041137 0.604665 2.090177 -11.303980 -27.374624 -1.365293 0.572120 -12.365826 -0.526771 -11.260272 -26.171761 -1.509881 -0.084429 -33.179050 -19.407553 -0.254579 -8.252008 -0.865319 -5.384758 -30.738760 30.000000 39.057758 -1.824069 6.936910 -0.368572 48.064915 1.513374 -8.174959 24.505280 5.000000 23.240068 20.435783 -9.780951 7.578588 -74.503723 8.885479 3.154618 107.874092 2.535372 -6.938756 -9.197830 7.906069 0.564378 -69.424454 2.411525 -4.056094 76.848770 2.415410 13.388161 -27.865173 -30.017797 -2.393920 
-7.286581 87.353867 44.313858 21.404245 -17.391642 21.887802 55.161968 6.774054 -9.086176 0.509962 1.791658 -10.813939 -27.230066 -1.476766 0.618603 -11.991784 -0.344772 -11.279560 -25.576542 -1.802551 -0.099846 -34.091221 -18.546398 0.034578 -8.417927 -0.934508 -4.802474 -30.221050 30.000000 39.485249 -1.501993 6.907597 -0.367058 48.168957 1.033659 -8.194414 26.533983 5.000000 21.279007 20.183470 -10.039908 7.664207 -75.585800 8.924319 1.305365 107.567162 2.544391 -7.038503 -11.450800 8.533167 1.057289 -67.541962 2.285410 -4.223319 74.933342 2.970286 13.823345 -27.392002 -29.740614 -2.271882 
-7.098260 87.954811 44.724861 21.139204 -17.489527 21.755363 54.298031 6.606856 -9.013460 0.485952 1.531491 -10.236825 -27.036448 -1.580046 0.653969 -11.678430 -0.248917 -11.377100 -24.981667 -2.222004 -0.121550 -34.975307 -17.600901 0.189970 -8.665916 -1.043294 -3.939886 -29.243517 30.000000 40.054035 -1.141165 7.014618 -0.362926 48.319134 0.586165 -8.289417 28.471327 5.000000 19.764326 19.829945 -10.124408 7.602163 -76.325661 9.159347 -0.661749 105.548759 2.388502 -7.343881 -13.114561 9.090261 1.319628 -65.483505 2.285051 -4.149317 72.782806 3.616247 14.141036 -26.824020 -29.545570 -2.128022 
-6.879685 88.568344 45.149300 20.843378 -17.555782 21.577162 53.438072 6.388015 -8.868158 0.493387 1.309668 -9.601231 -26.823284 -1.673670 0.687871 -11.404310 -0.200937 -11.533304 -24.406712 -2.729228 -0.147777 -35.849430 -16.603115 0.253381 -8.967061 -1.186999 -2.884823 -28.004377 30.000000 40.671711 -0.759168 7.190162 -0.372019 48.507118 0.153749 -8.420266 30.339525 5.000000 18.540617 19.409706 -10.088410 7.450802 -76.810028 9.510844 -2.733642 102.357460 2.086650 -7.811244 -14.345421 9.575381 1.381033 -63.308861 2.372981 -3.934630 70.463196 4.291152 14.323735 -26.195522 -29.399508 -1.982252 
-6.649760 89.181450 45.577957 20.542156 -17.560537 21.454428 52.575562 6.166595 -8.762102 0.514872 1.106807 -8.995247 -26.600195 -1.747982 0.718850 -11.142148 -0.143436 -11.709046 -23.812551 -3.265713 -0.175502 -36.700520 -15.598152 0.283060 -9.342968 -1.345908 -1.792299 -26.821356 29.189516 41.165165 -0.376811 7.414466 -0.383633 48.718487 -0.225293 -8.557514 32.136242 5.000000 17.442432 18.948563 -9.965176 7.275254 -77.090294 9.774649 -4.803896 98.714951 1.638184 -8.218236 -15.421213 10.086713 1.488158 -61.088741 2.363589 -3.638475 68.136330 4.962716 14.461353 -25.536133 -29.202915 -1.767233 
-6.374446 89.792870 46.023434 20.225235 -17.325306 21.578602 51.698994 5.943933 -8.794853 0.601764 0.990924 -8.477375 -26.336351 -1.759101 0.710658 -10.954673 -0.057325 -11.943374 -23.179907 -3.889976 -0.207739 -37.509109 -14.518562 0.211333 -9.974760 -1.548247 -0.518807 -25.780777 27.391525 41.301983 -0.003070 7.794811 -0.403314 49.021835 -0.457673 -8.682086 33.610222 5.000000 16.795918 18.318293 -9.472001 7.046553 -76.385513 9.892056 -6.775640 93.063988 0.829132 -8.599615 -16.029264 10.329410 1.495197 -58.760246 2.157680 -3.032834 65.749138 5.629331 14.326591 -24.739248 -29.157602 -1.395345 
-6.099131 90.404213 46.468899 19.912329 -17.091513 21.693901 50.831146 5.729392 -8.833254 0.687119 0.874848 -7.969299 -26.072920 -1.778411 0.713577 -10.758138 0.028637 -12.187499 -22.557426 -4.523989 -0.240452 -38.319500 -13.436061 0.123815 -10.611791 -1.779382 0.749964 -24.749290 25.595898 41.390011 0.380500 8.165400 -0.422472 49.324581 -0.681459 -8.815572 35.089581 5.000000 16.149101 17.693636 -8.980268 6.817800 -75.688866 10.048686 -8.742581 87.452675 0.000537 -8.910842 -16.657751 10.474845 1.419544 -56.451290 1.943081 -2.448606 63.362328 6.274536 14.148273 -23.991739 -29.111971 -1.081077 
-5.754897 90.946640 46.949669 19.474558 -16.616276 21.668030 49.940468 5.276043 -8.782081 0.832329 0.826603 -7.578565 -25.692301 -1.797721 0.716496 -10.562864 0.162172 -12.353548 -21.916122 -5.226272 -0.277538 -39.172779 -12.235300 -0.182953 -11.523703 -2.119731 2.355793 -24.086050 24.023855 40.963917 0.725752 8.614008 -0.447103 49.649200 -0.830941 -8.946345 36.226730 5.000000 15.885524 17.089958 -8.479281 6.549375 -73.793205 10.341842 -10.335126 80.824272 -1.035679 -8.959145 -16.933926 10.427086 1.378307 -54.058853 1.825911 -1.551115 61.211391 6.772210 13.812018 -23.330877 -29.009285 -0.683237 
-5.393415 91.471779 47.439281 19.004477 -16.091919 21.586233 49.045406 4.761552 -8.708514 0.984177 0.807474 -7.217264 -25.282389 -1.817031 0.719415 -10.370425 0.305081 -12.509899 -21.275324 -5.938306 -0.314313 -40.036789 -11.020534 -0.568101 -12.498425 -2.538940 4.045468 -23.499290 22.527620 40.375938 1.071359 9.082117 -0.471327 49.970425 -0.952934 -9.062579 37.281563 5.000000 15.701676 16.489937 -7.982537 6.293259 -71.611237 10.723059 -11.836418 73.974571 -2.120322 -8.803609 -17.105434 10.235602 1.275791 -51.642567 1.688899 -0.594276 59.067196 7.202585 13.390696 -22.670668 -28.905514 -0.226125 
-4.991601 91.922127 47.948196 18.420803 -15.619014 21.268732 48.102013 4.194839 -8.330699 1.212900 0.798024 -6.865588 -24.823769 -1.845996 0.723793 -10.120955 0.409797 -12.607725 -20.664412 -6.669837 -0.353175 -40.991241 -9.736470 -1.095874 -13.589475 -3.053855 5.812678 -22.989449 21.085928 39.611599 1.357813 9.462456 -0.492592 50.341881 -1.052975 -9.242783 38.185051 5.000000 15.648232 15.995455 -7.643951 6.102506 -69.108673 11.367099 -13.166098 67.332207 -3.121501 -8.513196 -17.108238 9.883732 1.054303 -49.248180 1.757241 0.368372 57.218189 7.526243 12.977457 -22.192957 -28.802307 0.174184 
